<svg xmlns="http://www.w3.org/2000/svg" version="1.1" xmlns:xlink="http://www.w3.org/1999/xlink" width="512" height="512" x="0" y="0" viewBox="0 0 60 60" style="enable-background:new 0 0 512 512" xml:space="preserve"><g><path d="M9 39a3 3 0 0 0-3 3v15a3 3 0 0 0 3 3h4a3 3 0 0 0 3-3V42a3 3 0 0 0-3-3Zm5 3v15a1 1 0 0 1-1 1H9a1 1 0 0 1-1-1V42a1 1 0 0 1 1-1h4a1 1 0 0 1 1 1ZM22 32a3 3 0 0 0-3 3v22a3 3 0 0 0 3 3h4a3 3 0 0 0 3-3V35a3 3 0 0 0-3-3Zm5 3v22a1 1 0 0 1-1 1h-4a1 1 0 0 1-1-1V35a1 1 0 0 1 1-1h4a1 1 0 0 1 1 1ZM35 25a3 3 0 0 0-3 3v29a3 3 0 0 0 3 3h4a3 3 0 0 0 3-3V28a3 3 0 0 0-3-3Zm5 3v29a1 1 0 0 1-1 1h-4a1 1 0 0 1-1-1V28a1 1 0 0 1 1-1h4a1 1 0 0 1 1 1ZM52 18h-4a3 3 0 0 0-3 3v36a3 3 0 0 0 3 3h4a3 3 0 0 0 3-3V21a3 3 0 0 0-3-3Zm1 39a1 1 0 0 1-1 1h-4a1 1 0 0 1-1-1V21a1 1 0 0 1 1-1h4a1 1 0 0 1 1 1ZM55 3a3 3 0 0 0-3-3h-7a3 3 0 0 0-.227 5.991L36 14.758l-.876-.871a3.051 3.051 0 0 0-4.239-.005L24 20.757l-2.877-2.869A2.959 2.959 0 0 0 19 17a2.956 2.956 0 0 0-2.117.886l-11 11a2.994 2.994 0 1 0 4.23 4.238L19 24.243l2.878 2.869A2.957 2.957 0 0 0 24 28a2.956 2.956 0 0 0 2.117-.885L33 20.241l.876.872a3.049 3.049 0 0 0 4.239 0l10.891-10.89A3 3 0 0 0 55 10Zm-2 7a1 1 0 0 1-2 0V7.82a1 1 0 0 0-1.707-.707L36.7 19.707a.993.993 0 0 1-1.4-.006l-1.59-1.58a1 1 0 0 0-1.412 0L24.7 25.707a.972.972 0 0 1-1.4 0l-3.59-3.58a1 1 0 0 0-1.413 0L8.706 31.7a1 1 0 0 1-1.411 0 .976.976 0 0 1 0-1.4l11-11a.974.974 0 0 1 1.4 0l3.589 3.58a1 1 0 0 0 1.413 0l7.603-7.587a.993.993 0 0 1 1.4.006l1.59 1.58a1 1 0 0 0 1.412 0l11.18-11.17A1 1 0 0 0 47.181 4H45a1 1 0 0 1 0-2h7a1 1 0 0 1 1 1Z" fill="#f1734f" opacity="1" data-original="#000000"></path></g></svg>