<svg xmlns="http://www.w3.org/2000/svg" version="1.1" xmlns:xlink="http://www.w3.org/1999/xlink" width="512" height="512" x="0" y="0" viewBox="0 0 60 60" style="enable-background:new 0 0 512 512" xml:space="preserve" class=""><g><path d="M39.894 7.106a2.213 2.213 0 0 0-1.806-1.517l-4.211-.6L32 1.229a2.237 2.237 0 0 0-3.994 0l-1.88 3.756-4.211.6a2.213 2.213 0 0 0-1.806 1.517 2.189 2.189 0 0 0 .574 2.261l3.038 2.921L23 16.409a2.193 2.193 0 0 0 .872 2.155 2.226 2.226 0 0 0 2.357.182L30 16.792l3.771 1.955a2.23 2.23 0 0 0 2.356-.183A2.193 2.193 0 0 0 37 16.409l-.717-4.121 3.037-2.92a2.189 2.189 0 0 0 .574-2.262zm-1.96.82-3.421 3.289a1 1 0 0 0-.292.891l.807 4.645a.188.188 0 0 1-.084.2.232.232 0 0 1-.255.02l-4.229-2.194a1 1 0 0 0-.92 0l-4.229 2.193a.229.229 0 0 1-.255-.019.188.188 0 0 1-.084-.2l.807-4.645a1 1 0 0 0-.292-.891l-3.422-3.29a.188.188 0 0 1-.054-.206.21.21 0 0 1 .184-.15l4.73-.677a1 1 0 0 0 .753-.543l2.114-4.226a.218.218 0 0 1 .416 0l2.114 4.226a1 1 0 0 0 .753.543l4.73.677a.21.21 0 0 1 .184.15.189.189 0 0 1-.055.207zM19.914 12.063a1.615 1.615 0 0 0-1.292-1.1l-1.837-.279-.829-1.755a1.6 1.6 0 0 0-2.912 0l-.829 1.755-1.839.279a1.615 1.615 0 0 0-1.29 1.1 1.649 1.649 0 0 0 .388 1.686l1.354 1.379-.322 1.958a1.64 1.64 0 0 0 .672 1.619 1.587 1.587 0 0 0 1.689.1l1.633-.9 1.633.9a1.575 1.575 0 0 0 1.689-.1 1.638 1.638 0 0 0 .671-1.619l-.321-1.958 1.354-1.379a1.649 1.649 0 0 0 .388-1.686zm-3.524 2.025a1 1 0 0 0-.274.863l.281 1.714-1.416-.778a1 1 0 0 0-.962 0l-1.416.778.281-1.714a1 1 0 0 0-.274-.863l-1.23-1.253 1.661-.252a1 1 0 0 0 .755-.562l.7-1.49.7 1.49a1 1 0 0 0 .755.562l1.661.252zM50.914 12.063a1.615 1.615 0 0 0-1.292-1.1l-1.837-.279-.829-1.755a1.6 1.6 0 0 0-2.912 0l-.829 1.755-1.839.279a1.615 1.615 0 0 0-1.29 1.1 1.649 1.649 0 0 0 .388 1.686l1.354 1.379-.322 1.958a1.64 1.64 0 0 0 .672 1.619 1.587 1.587 0 0 0 1.689.1l1.633-.9 1.633.9a1.575 1.575 0 0 0 1.689-.1 1.638 1.638 0 0 0 .671-1.619l-.321-1.958 1.354-1.379a1.649 1.649 0 0 0 .388-1.686zm-3.524 2.025a1 1 0 0 0-.274.863l.281 1.714-1.416-.778a1 1 0 0 0-.962 0l-1.416.778.281-1.714a1 1 0 0 0-.274-.863l-1.23-1.253 1.661-.252a1 1 0 0 0 .755-.562l.7-1.49.7 1.49a1 1 0 0 0 .755.562l1.661.252zM4 25v24a4 4 0 0 0 4 4h18.287l9.4 6.511A2.754 2.754 0 0 0 40 57.248V53h12a4 4 0 0 0 4-4V25a4 4 0 0 0-4-4H8a4 4 0 0 0-4 4zm2 0a2 2 0 0 1 2-2h44a2 2 0 0 1 2 2v24a2 2 0 0 1-2 2H39a1 1 0 0 0-1 1v5.248a.755.755 0 0 1-1.181.617l-9.65-6.687A1.006 1.006 0 0 0 26.6 51H8a2 2 0 0 1-2-2z" fill="#f1734f" opacity="1" data-original="#000000"></path><path d="M11 29h38a1 1 0 0 0 0-2H11a1 1 0 0 0 0 2zM11 35h38a1 1 0 0 0 0-2H11a1 1 0 0 0 0 2zM11 41h38a1 1 0 0 0 0-2H11a1 1 0 0 0 0 2zM11 47h25a1 1 0 0 0 0-2H11a1 1 0 0 0 0 2z" fill="#f1734f" opacity="1" data-original="#000000"></path></g></svg>