<svg width="20" height="20" viewBox="0 0 20 20" fill="none" xmlns="http://www.w3.org/2000/svg">
<g clip-path="url(#clip0_680_3050)">
<path d="M5.83333 0H3.33333C2.44928 0 1.60143 0.35119 0.976311 0.976311C0.35119 1.60143 0 2.44928 0 3.33333L0 5.83333C0 6.71739 0.35119 7.56524 0.976311 8.19036C1.60143 8.81548 2.44928 9.16667 3.33333 9.16667H5.83333C6.71739 9.16667 7.56524 8.81548 8.19036 8.19036C8.81548 7.56524 9.16667 6.71739 9.16667 5.83333V3.33333C9.16667 2.44928 8.81548 1.60143 8.19036 0.976311C7.56524 0.35119 6.71739 0 5.83333 0V0ZM7.5 5.83333C7.5 6.27536 7.32441 6.69928 7.01184 7.01184C6.69928 7.32441 6.27536 7.5 5.83333 7.5H3.33333C2.89131 7.5 2.46738 7.32441 2.15482 7.01184C1.84226 6.69928 1.66667 6.27536 1.66667 5.83333V3.33333C1.66667 2.89131 1.84226 2.46738 2.15482 2.15482C2.46738 1.84226 2.89131 1.66667 3.33333 1.66667H5.83333C6.27536 1.66667 6.69928 1.84226 7.01184 2.15482C7.32441 2.46738 7.5 2.89131 7.5 3.33333V5.83333Z" fill="#8D8D8D"/>
<path d="M5.83333 10.8333H3.33333C2.44928 10.8333 1.60143 11.1845 0.976311 11.8096C0.35119 12.4347 0 13.2826 0 14.1666L0 16.6666C0 17.5507 0.35119 18.3985 0.976311 19.0237C1.60143 19.6488 2.44928 20 3.33333 20H5.83333C6.71739 20 7.56524 19.6488 8.19036 19.0237C8.81548 18.3985 9.16667 17.5507 9.16667 16.6666V14.1666C9.16667 13.2826 8.81548 12.4347 8.19036 11.8096C7.56524 11.1845 6.71739 10.8333 5.83333 10.8333ZM7.5 16.6666C7.5 17.1087 7.32441 17.5326 7.01184 17.8452C6.69928 18.1577 6.27536 18.3333 5.83333 18.3333H3.33333C2.89131 18.3333 2.46738 18.1577 2.15482 17.8452C1.84226 17.5326 1.66667 17.1087 1.66667 16.6666V14.1666C1.66667 13.7246 1.84226 13.3007 2.15482 12.9881C2.46738 12.6756 2.89131 12.5 3.33333 12.5H5.83333C6.27536 12.5 6.69928 12.6756 7.01184 12.9881C7.32441 13.3007 7.5 13.7246 7.5 14.1666V16.6666Z" fill="#8D8D8D"/>
<path d="M18.577 15.8741L16.6662 17.7825V2.19414L18.577 4.10247C18.6544 4.17984 18.7463 4.24121 18.8475 4.28306C18.9486 4.32491 19.057 4.34643 19.1665 4.34639C19.2759 4.34635 19.3843 4.32476 19.4854 4.28283C19.5865 4.24091 19.6784 4.17948 19.7558 4.10206C19.8331 4.02463 19.8945 3.93272 19.9364 3.83158C19.9782 3.73045 19.9997 3.62205 19.9997 3.5126C19.9996 3.40314 19.9781 3.29476 19.9361 3.19365C19.8942 3.09254 19.8328 3.00068 19.7554 2.92331L17.5995 0.770806C17.1308 0.302638 16.4954 0.0396729 15.8329 0.0396729C15.1703 0.0396729 14.5349 0.302638 14.0662 0.770806L11.9104 2.92331C11.8329 3.00068 11.7715 3.09254 11.7296 3.19365C11.6877 3.29476 11.6661 3.40314 11.666 3.5126C11.666 3.62205 11.6875 3.73045 11.7293 3.83158C11.7712 3.93272 11.8326 4.02463 11.9099 4.10206C11.9873 4.17948 12.0792 4.24091 12.1803 4.28283C12.2814 4.32476 12.3898 4.34635 12.4992 4.34639C12.6087 4.34643 12.7171 4.32491 12.8182 4.28306C12.9194 4.24121 13.0113 4.17984 13.0887 4.10247L14.9995 2.19414V17.7825L13.0887 15.8741C13.0113 15.7968 12.9194 15.7354 12.8182 15.6936C12.7171 15.6517 12.6087 15.6302 12.4992 15.6302C12.3898 15.6303 12.2814 15.6519 12.1803 15.6938C12.0792 15.7357 11.9873 15.7971 11.9099 15.8746C11.8326 15.952 11.7712 16.0439 11.7293 16.145C11.6875 16.2462 11.666 16.3546 11.666 16.464C11.6661 16.5735 11.6877 16.6819 11.7296 16.783C11.7715 16.8841 11.8329 16.9759 11.9104 17.0533L14.0662 19.2058C14.5349 19.674 15.1703 19.9369 15.8329 19.9369C16.4954 19.9369 17.1308 19.674 17.5995 19.2058L19.7554 17.0533C19.8328 16.9759 19.8942 16.8841 19.9361 16.783C19.9781 16.6819 19.9996 16.5735 19.9997 16.464C19.9997 16.3546 19.9782 16.2462 19.9364 16.145C19.8945 16.0439 19.8331 15.952 19.7558 15.8746C19.6784 15.7971 19.5865 15.7357 19.4854 15.6938C19.3843 15.6519 19.2759 15.6303 19.1665 15.6302C19.057 15.6302 18.9486 15.6517 18.8475 15.6936C18.7463 15.7354 18.6544 15.7968 18.577 15.8741Z" fill="#8D8D8D"/>
</g>
<defs>
<clipPath id="clip0_680_3050">
<rect width="20" height="20" fill="white"/>
</clipPath>
</defs>
</svg>
