<svg xmlns="http://www.w3.org/2000/svg" version="1.1" xmlns:xlink="http://www.w3.org/1999/xlink" width="512" height="512" x="0" y="0" viewBox="0 0 60 60" style="enable-background:new 0 0 512 512" xml:space="preserve" class=""><g><path d="M39 13a17 17 0 1 0 17 17 17.019 17.019 0 0 0-17-17Zm0 32a15 15 0 1 1 15-15 15.017 15.017 0 0 1-15 15Z" fill="#f1734f" opacity="1" data-original="#000000" class=""></path><path d="M39 9a20.848 20.848 0 0 0-8.886 2H7a3 3 0 0 0-3 3 3.015 3.015 0 0 0 3 3h4a1 1 0 0 1 1 1 .977.977 0 0 1-.307.713A.959.959 0 0 1 11 19H3a3 3 0 0 0-3 3 2.92 2.92 0 0 0 .873 2.107A2.937 2.937 0 0 0 3 25h6a1 1 0 0 1 1 1 .977.977 0 0 1-.307.713A.959.959 0 0 1 9 27H7a3 3 0 0 0-3 3 3.015 3.015 0 0 0 3 3h2a1 1 0 0 1 1 1 .977.977 0 0 1-.307.713A.959.959 0 0 1 9 35H4a3 3 0 0 0-3 3 2.92 2.92 0 0 0 .873 2.107A2.937 2.937 0 0 0 4 41h8a1 1 0 0 1 1 1 1.028 1.028 0 0 1-1 1H8a3 3 0 0 0-3 3 3.015 3.015 0 0 0 3 3h22.114A20.989 20.989 0 1 0 39 9ZM8 47a.977.977 0 0 1-.713-.307A.959.959 0 0 1 7 46a1 1 0 0 1 1-1h4a3.043 3.043 0 0 0 3-3 3 3 0 0 0-3-3H4a1.03 1.03 0 0 1-1-1 1 1 0 0 1 1-1h5a3.036 3.036 0 0 0 3-3 3 3 0 0 0-3-3H7a1.021 1.021 0 0 1-1-1 1 1 0 0 1 1-1h2a3.057 3.057 0 0 0 3-3 3 3 0 0 0-3-3H3a1.018 1.018 0 0 1-1-1 1 1 0 0 1 1-1h8a3.036 3.036 0 0 0 3-3 3 3 0 0 0-3-3H7a1.02 1.02 0 0 1-1-1 1 1 0 0 1 1-1h19.721a20.93 20.93 0 0 0 0 34Zm31 2a19 19 0 1 1 19-19 19.021 19.021 0 0 1-19 19Z" fill="#f1734f" opacity="1" data-original="#000000" class=""></path><path d="M39 17a1 1 0 0 0-1 1v1a1 1 0 0 0 2 0v-1a1 1 0 0 0-1-1ZM31.222 20.808a1 1 0 0 0-1.414 1.414l.707.707a1 1 0 1 0 1.414-1.414ZM28 29h-1a1 1 0 0 0 0 2h1a1 1 0 0 0 0-2ZM30.515 37.071l-.707.707a1 1 0 1 0 1.414 1.414l.707-.707a1 1 0 1 0-1.414-1.414ZM39 40a1 1 0 0 0-1 1v1a1 1 0 0 0 2 0v-1a1 1 0 0 0-1-1ZM47.485 37.071a1 1 0 0 0-1.414 1.414l.707.707a1 1 0 0 0 1.414-1.414ZM49 30a1 1 0 0 0 1 1h1a1 1 0 0 0 0-2h-1a1 1 0 0 0-1 1ZM46.778 20.808l-.707.707a1 1 0 1 0 1.414 1.414l.707-.707a1 1 0 0 0-1.414-1.414ZM39 22a1 1 0 0 0-1 1v6.382l-3.447 1.723a1 1 0 0 0 .894 1.79l4-2A1 1 0 0 0 40 30v-7a1 1 0 0 0-1-1Z" fill="#f1734f" opacity="1" data-original="#000000" class=""></path></g></svg>