<svg xmlns="http://www.w3.org/2000/svg" version="1.1" xmlns:xlink="http://www.w3.org/1999/xlink" width="512" height="512" x="0" y="0" viewBox="0 0 60 60" style="enable-background:new 0 0 512 512" xml:space="preserve" class=""><g><path d="M56.435 32.1a4.51 4.51 0 0 0-3.724.875 4.472 4.472 0 0 0-7.053-1.958c-.1.079-.189.161-.278.247a4.427 4.427 0 0 0-2.945-2.164 4.528 4.528 0 0 0-3.435.66V22.9A11.992 11.992 0 0 0 34 0H12a12 12 0 0 0 0 24h17.988l-.014 11.289-3.574-6.068a4.512 4.512 0 0 0-8.4 2.3 4.635 4.635 0 0 0 .5 2.07L28.825 53.52A11.959 11.959 0 0 0 39.48 60H48a12.013 12.013 0 0 0 12-12V36.6a4.559 4.559 0 0 0-3.565-4.5ZM12 22a10 10 0 1 1 0-20h22a9.981 9.981 0 0 1 5 18.648V13.6a4.5 4.5 0 0 0-7.342-3.587A4.484 4.484 0 0 0 30 13.5l-.01 8.5Zm46 26a10.011 10.011 0 0 1-10 10h-8.52a9.964 9.964 0 0 1-8.88-5.4L20.284 32.682A2.613 2.613 0 0 1 20 31.52a2.512 2.512 0 0 1 4.678-1.283l5.43 9.221a1 1 0 0 0 1.862-.507L32 13.5a2.507 2.507 0 0 1 3.034-2.445A2.554 2.554 0 0 1 37 13.6v19.9a1 1 0 0 0 2 0 2.507 2.507 0 0 1 3.034-2.445A2.554 2.554 0 0 1 44 33.6v.9a1 1 0 0 0 2 0 2.507 2.507 0 0 1 3.034-2.445A2.554 2.554 0 0 1 51 34.6v1.9a1 1 0 0 0 2 0 2.507 2.507 0 0 1 3.034-2.445A2.554 2.554 0 0 1 58 36.6Z" fill="#f1734f" opacity="1" data-original="#000000" class=""></path><path d="m26.2 7.4-5.308 7.078-1.185-1.185a1 1 0 0 0-1.414 1.414l2 2A1 1 0 0 0 21 17h.071a1 1 0 0 0 .729-.4l6-8a1 1 0 1 0-1.6-1.2Z" fill="#f1734f" opacity="1" data-original="#000000" class=""></path></g></svg>